# xmcd CD database file
#
# Track frame offsets:
#	150
#	9547
#	28354
#	46444
#	68658
#	87194
#	97371
#	112229
#	123632
#	140942
#	159812
#
# Disc length: 2264 seconds
#
# Revision: 0
# Processed by: cddbd v1.5.2PL0 Copyright (c) Steve Scherf et al.
# Submitted via: CDex 1.70beta2
#
DISCID=a108d60b
DTITLE=Groove - Percussion Konzert Juni 2010
DYEAR=2010
DGENRE=Salsa
TTITLE0=Risiko
TTITLE1=Merengue
TTITLE2=Salsa
TTITLE3=Elefant
TTITLE4=Halten
TTITLE5=T2
TTITLE6=Ichi
TTITLE7=Okinawa
TTITLE8=Mosadi
TTITLE9=Da shi lag be
TTITLE10=Djigbo
EXTD=YEAR: 2010
EXTT0=
EXTT1=
EXTT2=
EXTT3=
EXTT4=
EXTT5=
EXTT6=
EXTT7=
EXTT8=
EXTT9=
EXTT10=
PLAYORDER=
